<?xml version="1.0" encoding="utf-8"?>
<!-- Generator: Adobe Illustrator 25.4.2, SVG Export Plug-In . SVG Version: 6.00 Build 0)  -->
<svg version="1.1" id="Layer_1" xmlns="http://www.w3.org/2000/svg" xmlns:xlink="http://www.w3.org/1999/xlink" x="0px" y="0px"
	 viewBox="0 0 566.93 566.93" style="enable-background:new 0 0 566.93 566.93;" xml:space="preserve">
<style type="text/css">
	.st0{fill:#FFFFFF;}
</style>
<g>
	<path class="st0" d="M131.39,196.64c0.08-0.89,0.19-1.58,0.19-2.28c0.02-28.76,0.05-57.52-0.03-86.27c0-1.07-0.82-2.51-1.72-3.14
		c-11.55-8.04-23.17-15.98-34.82-23.88c-0.83-0.56-1.99-0.65-3-0.96c-0.25,1.03-0.73,2.06-0.73,3.09c-0.04,28.96,0,57.92-0.08,86.88
		c-0.01,3.5,1.21,5.93,4.17,7.8c8.54,5.44,17.1,10.86,25.43,16.61C124.11,196.76,127.39,197.25,131.39,196.64z M136.76,197.48
		c3.34-0.69,6.45-0.56,8.65-1.91c9.42-5.75,18.54-11.96,27.83-17.92c2.66-1.71,3.8-3.98,3.8-7.08c-0.03-29.16-0.01-58.32-0.05-87.47
		c0-1.02-0.5-2.05-0.77-3.07c-1,0.36-2.12,0.52-2.97,1.1c-11.39,7.73-22.72,15.57-34.14,23.25c-1.83,1.23-2.4,2.57-2.4,4.72
		c0.07,27.84,0.05,55.68,0.05,83.52C136.76,193.91,136.76,195.2,136.76,197.48z M147.53,338.95c0-1.99,0.07-3.61-0.01-5.22
		c-1.57-31.03-3.15-62.05-4.73-93.07c-0.61-12.03-1.2-24.05-1.9-36.07c-0.05-0.87-0.86-2.39-1.38-2.42
		c-3.89-0.21-7.8-0.11-11.95-0.11c-2.34,45.82-4.66,91.26-6.99,136.9C129.68,338.95,138.53,338.95,147.53,338.95z M119.83,390.52
		c9.23,0,18.11-0.03,27,0.02c1.75,0.01,1.93-0.92,1.93-2.31c-0.03-13.75-0.05-27.5,0.01-41.25c0.01-2.08-0.64-2.84-2.78-2.78
		c-4.95,0.13-9.92,0.04-14.87,0.04c-3.71,0-7.42,0-11.29,0C119.83,359.85,119.83,374.98,119.83,390.52z M133.87,480.58
		c0.19,0,0.38,0,0.57,0c0.64-24.53,1.29-49.07,1.93-73.6c-1.81,0-2.97,0-4.45,0C132.57,431.66,133.22,456.12,133.87,480.58z
		 M148.07,396.77c-0.14-0.33-0.27-0.66-0.41-0.98c-9.03,0-18.06,0-27.76,0c3.18,5.08,7.95,5.52,12.54,5.8
		C138.26,401.94,143.97,401.43,148.07,396.77z"/>
	<path d="M131.39,196.69c-4.01,0.58-7.28,0.11-10.57-2.01c-8.33-5.39-16.89-10.48-25.43-15.59c-2.95-1.76-4.18-4.04-4.17-7.33
		c0.08-27.18,0.04-54.36,0.08-81.55c0-0.97,0.47-1.94,0.73-2.9c1.01,0.29,2.16,0.37,3,0.9c11.65,7.42,23.27,14.87,34.82,22.42
		c0.89,0.58,1.71,1.94,1.72,2.94c0.08,26.99,0.05,53.98,0.03,80.98C131.58,195.2,131.47,195.86,131.39,196.69z"/>
	<path d="M136.76,197.48c0-2.14,0-3.36,0-4.57c0-26.13,0.02-52.26-0.05-78.4c-0.01-2.01,0.56-3.27,2.4-4.43
		c11.42-7.22,22.75-14.57,34.14-21.83c0.85-0.54,1.97-0.69,2.97-1.03c0.27,0.96,0.77,1.92,0.77,2.88
		c0.04,27.37,0.02,54.73,0.05,82.1c0,2.92-1.13,5.05-3.8,6.65c-9.29,5.59-18.41,11.43-27.83,16.82
		C143.2,196.95,140.1,196.84,136.76,197.48z"/>
	<path d="M145.05,338.95h-21.86c-1.43,0-2.57-1.2-2.49-2.63c2.25-43.97,4.48-87.76,6.74-131.91c0.07-1.32,1.16-2.37,2.48-2.37
		c3.29-0.02,6.44-0.05,9.59,0.12c0.52,0.03,1.33,1.55,1.38,2.42c0.7,12.02,1.28,24.05,1.9,36.07c1.58,31.02,3.17,62.05,4.73,93.07
		c0.05,0.89,0.04,1.79,0.03,2.75C147.53,337.84,146.42,338.95,145.05,338.95z"/>
	<path d="M119.83,388.54c0-7.57,0-34.58,0-42.7c0-1.29,1.05-2.33,2.34-2.33c3.04,0,5.99,0,8.95,0c4.96,0,9.92,0.09,14.87-0.04
		c2.14-0.06,2.79,0.71,2.78,2.83c-0.06,13.97-0.04,27.94-0.01,41.91c0,1.41-0.18,2.35-1.93,2.34c-8.24-0.05-16.49-0.03-25.01-0.02
		C120.72,390.52,119.83,389.64,119.83,388.54z"/>
	<path d="M133.87,480.58c-0.65-26.79-1.3-53.59-1.95-80.62c1.48,0,2.64,0,4.45,0c-0.64,26.88-1.29,53.75-1.93,80.63
		C134.25,480.58,134.06,480.58,133.87,480.58z"/>
	<path d="M148.56,395.51c-4.13,5.84-10.06,6.47-16.11,6.06c-4.47-0.3-9.1-0.77-12.28-6.05c-0.12-0.2,0.03-0.46,0.26-0.46l27.9,0
		C148.56,395.06,148.69,395.33,148.56,395.51z"/>
</g>
</svg>
