<svg id="Layer_1" data-name="Layer 1" xmlns="http://www.w3.org/2000/svg" viewBox="0 0 570.41 157.62"><defs><style>.cls-1{fill:#f8ad3a;}.cls-2{fill:#fff;}</style></defs><path class="cls-1" d="M0,233.94s8.92,3.1,107.09-28.57c35.79-11.55,64.61-9,95.54-9.24,19-.12,35.67-.2,46.07-.24a53.15,53.15,0,0,1,22,4.67c28.83,13,106,49.1,101.64,61.67-5.39,15.44-52.44-10.82-52.44-10.82s46.22,47.51,33.39,54.12C340.65,312,326.84,276,291.87,262a.39.39,0,0,0-.45.62c7.47,8.67,51.9,61,36.1,61.47a8.63,8.63,0,0,1-7.3-4C305.67,298.47,272.52,275,266,270.47a.27.27,0,0,0-.39.37c4.55,7.06,28.32,45,18.38,49.41-11,4.9-25.11-27.42-39-34.64s-21.92,2-64.08-19.92C153.38,251.33,0,350.84,0,350.84Z" transform="translate(0 -193.23)"/><path class="cls-2" d="M448.61,226.27c-.39,0-.69-.05-1,0q-18.51.78-37,1.61a1.88,1.88,0,0,0-1.31.79q-4.86,7.67-9.61,15.39a5.17,5.17,0,0,0-.36,1.3,5.87,5.87,0,0,0,1.34.26c12.43-.52,24.86-1.07,37.29-1.57a3.58,3.58,0,0,0,3.27-1.94c2.18-3.76,4.34-7.53,6.66-11.22A5.91,5.91,0,0,0,448.61,226.27Zm.26-2.32c-.36-1.42-.36-2.76-1-3.68-2.64-3.93-5.48-7.73-8.21-11.61a3.3,3.3,0,0,0-3.1-1.5Q417.8,208,399,208.8a5.66,5.66,0,0,0-1.3.38,5.65,5.65,0,0,0,.52,1.26c3.53,4.74,7.1,9.46,10.61,14.22a2.13,2.13,0,0,0,2.07.94q17.93-.81,35.84-1.56Zm60.51-7.23c-.86,0-1.55,0-2.24.1l-39.85,3.75c-5.16.48-10.3,1-15.45,1.48-.37,0-1,.41-1,.63,0,1.68.1,3.35.17,5.13l58.88.48C509.71,224.38,509.54,220.58,509.38,216.72ZM532,227.65c-.17-4-.35-7.77-.49-11.58,0-.75-.43-.81-1-.79q-8.85.41-17.7.76c-.89,0-1.21.33-1.14,1.24.15,2.12.2,4.26.29,6.38l.21,4.85ZM570.41,220v-.25l-31.62.53.08,1.91Zm-36.23-4.55-.41.19.51,11.92c2.12-1.46,2.22-3.52,2.26-5.49C536.58,219.53,536.26,217.09,534.18,215.42Z" transform="translate(0 -193.23)"/><path class="cls-1" d="M448.63,226.27a6.17,6.17,0,0,1-.67,4.57c-2.16,3.68-4.19,7.44-6.22,11.2a3.34,3.34,0,0,1-3.07,1.93q-17.51.71-35,1.47a5.24,5.24,0,0,1-1.26-.26,5.47,5.47,0,0,1,.33-1.31q4.45-7.69,9-15.35a1.8,1.8,0,0,1,1.23-.79c11.58-.54,23.17-1,34.75-1.51C448,226.22,448.27,226.25,448.63,226.27Z" transform="translate(0 -193.23)"/><path class="cls-1" d="M448.87,224l-2,.09q-16.83.72-33.65,1.46a2,2,0,0,1-1.94-.95c-3.31-4.76-6.68-9.49-10-14.24a6.36,6.36,0,0,1-.5-1.26,5.2,5.2,0,0,1,1.22-.38l35.23-1.54a3.07,3.07,0,0,1,2.93,1.51c2.57,3.88,5.24,7.69,7.73,11.63C448.52,221.2,448.53,222.53,448.87,224Z" transform="translate(0 -193.23)"/><path class="cls-1" d="M509.42,217.78l.41,9.38a1.07,1.07,0,0,1-1.09,1.12L452,227.82a1.06,1.06,0,0,1-1.06-1c-.07-1.41-.14-2.76-.13-4.12,0-.22.64-.6,1-.63,5.14-.52,10.29-1,15.44-1.48l39.85-3.75c.38,0,.77,0,1.18-.06A1.06,1.06,0,0,1,509.42,217.78Z" transform="translate(0 -193.23)"/><path class="cls-1" d="M531.17,227.69l-18.32.79a1,1,0,0,1-1.05-1l-.16-3.84c-.09-2.13-.15-4.26-.29-6.38-.07-.92.25-1.21,1.16-1.25,6-.23,12-.5,18-.77.61,0,1,0,1,.79.13,3.53.3,7.07.46,10.73A.87.87,0,0,1,531.17,227.69Z" transform="translate(0 -193.23)"/><path class="cls-1" d="M570.41,220l-34.56,2.32-.08-1.91,34.63-.66A2.09,2.09,0,0,0,570.41,220Z" transform="translate(0 -193.23)"/><path class="cls-1" d="M533.63,215.23c2.58,1.67,3,4.2,2.9,6.8,0,1.93-.16,3.92-2.37,5.39a.13.13,0,0,1-.2-.11l-.52-12A.13.13,0,0,1,533.63,215.23Z" transform="translate(0 -193.23)"/><path class="cls-2" d="M191.26,236.55a62.13,62.13,0,0,0,8.14,5,72.29,72.29,0,0,0,8.67,3.9,68.08,68.08,0,0,0,9.06,2.69c1.53.34,3.07.63,4.62.88s3.07.55,4.62.77a63.49,63.49,0,0,0,9.35.39,66.18,66.18,0,0,0,9.3-1.05A69.2,69.2,0,0,0,262.68,243a1.48,1.48,0,0,1,1.51.08h0a86,86,0,0,0,13.65,7.24,63.67,63.67,0,0,0,14.74,4.38,39.32,39.32,0,0,0,7.57.54,29.75,29.75,0,0,0,7.42-1.07,26.74,26.74,0,0,0,6.78-3,28.88,28.88,0,0,0,5.62-4.86l-.26.43a8,8,0,0,0,.46-3.1,3.87,3.87,0,0,0-1.06-2.5c-1.28-1.31-3.73-1.7-6.08-1.64-.59,0-1.2.05-1.8.09s-1.13.11-1.8.21a27.7,27.7,0,0,1-4,.45,29.57,29.57,0,0,1-8-.77A48.21,48.21,0,0,1,283.07,233a128.32,128.32,0,0,1-12.4-9.33c-3.95-3.3-7.78-6.69-11.66-10-1.94-1.65-3.9-3.28-5.87-4.86s-4-3-6-4.62a61.54,61.54,0,0,0-12.87-7.82,33.92,33.92,0,0,0-14.8-2.74,31.46,31.46,0,0,1,7.7-.24,37,37,0,0,1,7.62,1.6,63.62,63.62,0,0,1,14,6.89c1.11.68,2.17,1.43,3.22,2.18s2,1.61,3,2.4q3,2.43,5.95,4.92c3.91,3.33,7.74,6.72,11.64,10a125.09,125.09,0,0,0,12.1,9.11,45.37,45.37,0,0,0,13.45,6.09,26.51,26.51,0,0,0,7.2.69,23.74,23.74,0,0,0,3.63-.41c.6-.09,1.35-.17,2-.24s1.34-.1,2-.1a16.63,16.63,0,0,1,4.17.39,8.37,8.37,0,0,1,4.09,2.14,6.92,6.92,0,0,1,1.91,4.39,10.49,10.49,0,0,1-.1,2.25,10.34,10.34,0,0,1-.57,2.18,1.17,1.17,0,0,1-.25.42h0a31.87,31.87,0,0,1-6.27,5.42A29.91,29.91,0,0,1,308.4,257a33.22,33.22,0,0,1-8.15,1.18,41.65,41.65,0,0,1-8.13-.58,66.51,66.51,0,0,1-15.42-4.58,89.28,89.28,0,0,1-14.19-7.52l1.54.09a71.33,71.33,0,0,1-18.46,6.47,68.14,68.14,0,0,1-9.76,1.11,67.12,67.12,0,0,1-9.82-.41c-1.62-.21-3.25-.38-4.85-.74a24.37,24.37,0,0,1-2.38-.6c-.79-.23-1.58-.42-2.35-.69a70.52,70.52,0,0,1-9.08-3.59A66.19,66.19,0,0,1,191.26,236.55Z" transform="translate(0 -193.23)"/></svg>